<svg width="25" height="22" viewBox="0 0 25 22" fill="none" xmlns="http://www.w3.org/2000/svg">
<path d="M22.3097 2.71128C21.1306 1.51723 19.5047 0.859619 17.7314 0.859619C14.6313 0.859619 13.0284 2.45478 12.2297 3.79292C12.2197 3.80951 12.2099 3.82615 12.2002 3.84274C12.1905 3.82615 12.1806 3.80951 12.1707 3.79292C11.372 2.45478 9.76907 0.859619 6.66895 0.859619C4.89571 0.859619 3.2698 1.51723 2.09066 2.71132C0.853914 3.96378 0.200195 5.67823 0.200195 7.66934C0.200195 11.8974 3.95868 14.7006 7.27466 17.1739C8.92696 18.4062 10.4876 19.5703 11.4699 20.7907C11.6478 21.0118 11.9164 21.1404 12.2002 21.1404C12.484 21.1404 12.7526 21.0118 12.9306 20.7908C13.4358 20.163 14.1381 19.4956 15.1408 18.6902C15.5444 18.366 15.6089 17.7759 15.2846 17.3722C14.9604 16.9686 14.3703 16.9041 13.9666 17.2283C13.2592 17.7965 12.6806 18.3104 12.2006 18.7988C11.1409 17.7184 9.79954 16.718 8.39568 15.6709C5.28834 13.3533 2.0752 10.9567 2.0752 7.66934C2.0752 4.76384 3.96421 2.73462 6.66895 2.73462C8.42765 2.73462 9.72627 3.39626 10.5286 4.70112C11.1657 5.73692 11.2648 6.81509 11.2654 6.82174C11.303 7.31014 11.7102 7.68931 12.2 7.68931C12.6899 7.68931 13.097 7.31426 13.1346 6.82587C13.1355 6.81509 13.2346 5.73692 13.8717 4.70112C14.6741 3.39626 15.9727 2.73462 17.7314 2.73462C20.4362 2.73462 22.3252 4.76384 22.3252 7.66934C22.3252 10.3899 20.1103 12.4992 17.7167 14.3733C17.3091 14.6924 17.2373 15.2817 17.5565 15.6894C17.8756 16.097 18.4649 16.1688 18.8726 15.8495C20.0112 14.958 21.4544 13.7533 22.5159 12.3386C23.6492 10.8281 24.2002 9.30078 24.2002 7.66934C24.2002 5.67823 23.5465 3.96378 22.3097 2.71128Z" fill="black"/>
</svg>
