<svg xmlns="http://www.w3.org/2000/svg">
 <defs>
 <symbol id="chevron" viewBox="0 0 10 6">
 <title>chevron</title>
 <path d="M5.35692 5.60686L9.85238 1.1099C10.0492 0.91258 10.0492 0.592884 9.85238 0.395063C9.65556 0.19774 9.33586 0.19774 9.13904 0.395063L5.00027 4.53532L0.861504 0.395562C0.664679 0.198238 0.344983 0.198238 0.147659 0.395562C-0.0491657 0.592885 -0.0491657 0.913078 0.147659 1.1104L4.64312 5.60736C4.83791 5.80169 5.16263 5.80169 5.35692 5.60686Z"/>
</symbol>
 <symbol id="user" viewBox="0 0 24 24">
 <title>user</title>
<path d="M0.0604954 20.5651C0.16601 20.0582 0.662369 19.7329 1.16942 19.8384C1.67632 19.9439 2.00168 20.4404 1.89612 20.9473C1.83532 21.2393 1.90774 21.5385 2.09468 21.7685C2.20296 21.9016 2.44442 22.125 2.84464 22.125H21.1547C21.5549 22.125 21.7963 21.9016 21.9046 21.7685C22.0916 21.5385 22.164 21.2393 22.1032 20.9473C21.1302 16.2741 17.0083 12.8603 12.2482 12.7452C12.1657 12.7484 12.0829 12.75 11.9997 12.75C11.9161 12.75 11.833 12.7484 11.7502 12.7452C8.39712 12.8256 5.29793 14.5239 3.4211 17.323C3.13278 17.7531 2.55045 17.8679 2.12032 17.5796C1.69029 17.2913 1.5754 16.7089 1.86378 16.2788C3.40207 13.9846 5.63581 12.3163 8.18271 11.478C6.63068 10.3142 5.62465 8.45986 5.62465 6.375C5.62465 2.85984 8.48445 0 11.9997 0C15.5149 0 18.3747 2.85984 18.3747 6.375C18.3747 8.46113 17.3674 10.3164 15.8137 11.4802C17.2372 11.9489 18.5729 12.6781 19.742 13.6397C21.8857 15.403 23.3762 17.8625 23.9388 20.5651C24.1152 21.412 23.9039 22.2818 23.3593 22.9515C22.8174 23.6178 22.0138 24 21.1547 24H2.84468C1.98551 24 1.18193 23.6178 0.640057 22.9515C0.0953693 22.2818 -0.115849 21.412 0.0604954 20.5651ZM16.4997 6.375C16.4997 3.89367 14.481 1.875 11.9997 1.875C9.51832 1.875 7.49965 3.89367 7.49965 6.375C7.49965 8.77992 9.39598 10.7503 11.7719 10.8693C11.8477 10.8679 11.9236 10.8672 11.9997 10.8672C12.0753 10.8672 12.151 10.8679 12.2265 10.8693C14.6029 10.7508 16.4997 8.78025 16.4997 6.375Z" />
</symbol>
 <symbol id="heart" viewBox="0 0 25 22">
 <title>heart</title>
<path d="M22.3097 2.71128C21.1306 1.51723 19.5047 0.859619 17.7314 0.859619C14.6313 0.859619 13.0284 2.45478 12.2297 3.79292C12.2197 3.80951 12.2099 3.82615 12.2002 3.84274C12.1905 3.82615 12.1806 3.80951 12.1707 3.79292C11.372 2.45478 9.76907 0.859619 6.66895 0.859619C4.89571 0.859619 3.2698 1.51723 2.09066 2.71132C0.853914 3.96378 0.200195 5.67823 0.200195 7.66934C0.200195 11.8974 3.95868 14.7006 7.27466 17.1739C8.92696 18.4062 10.4876 19.5703 11.4699 20.7907C11.6478 21.0118 11.9164 21.1404 12.2002 21.1404C12.484 21.1404 12.7526 21.0118 12.9306 20.7908C13.4358 20.163 14.1381 19.4956 15.1408 18.6902C15.5444 18.366 15.6089 17.7759 15.2846 17.3722C14.9604 16.9686 14.3703 16.9041 13.9666 17.2283C13.2592 17.7965 12.6806 18.3104 12.2006 18.7988C11.1409 17.7184 9.79954 16.718 8.39568 15.6709C5.28834 13.3533 2.0752 10.9567 2.0752 7.66934C2.0752 4.76384 3.96421 2.73462 6.66895 2.73462C8.42765 2.73462 9.72627 3.39626 10.5286 4.70112C11.1657 5.73692 11.2648 6.81509 11.2654 6.82174C11.303 7.31014 11.7102 7.68931 12.2 7.68931C12.6899 7.68931 13.097 7.31426 13.1346 6.82587C13.1355 6.81509 13.2346 5.73692 13.8717 4.70112C14.6741 3.39626 15.9727 2.73462 17.7314 2.73462C20.4362 2.73462 22.3252 4.76384 22.3252 7.66934C22.3252 10.3899 20.1103 12.4992 17.7167 14.3733C17.3091 14.6924 17.2373 15.2817 17.5565 15.6894C17.8756 16.097 18.4649 16.1688 18.8726 15.8495C20.0112 14.958 21.4544 13.7533 22.5159 12.3386C23.6492 10.8281 24.2002 9.30078 24.2002 7.66934C24.2002 5.67823 23.5465 3.96378 22.3097 2.71128Z" />
</symbol>
 <symbol id="cart" viewBox="0 0 24 25">
 <title>cart</title>
<path d="M0.410242 5.4555C0.588272 5.2365 0.855461 5.10938 1.1377 5.10938H18.1188L18.1884 4.47038L18.1909 4.44984C18.5237 1.91306 20.7041 0 23.2627 0C23.7805 0 24.2002 0.419719 24.2002 0.9375C24.2002 1.45528 23.7805 1.875 23.2627 1.875C21.6452 1.875 20.2663 3.08198 20.0512 4.68412L18.9368 14.9217C19.9114 15.364 20.5908 16.3463 20.5908 17.4844C20.5908 17.4922 20.5907 17.5 20.5905 17.5078C20.5907 17.5156 20.5908 17.5234 20.5908 17.5312C20.5908 19.0821 19.3291 20.3438 17.7783 20.3438H17.3969C17.4922 20.6233 17.5439 20.9229 17.5439 21.2344C17.5439 22.7593 16.3033 24 14.7783 24C13.2533 24 12.0127 22.7593 12.0127 21.2344C12.0127 20.9229 12.0644 20.6233 12.1598 20.3438H8.11555C8.2109 20.6233 8.26265 20.9229 8.26265 21.2344C8.26265 22.7593 7.02201 24 5.49702 24C3.97204 24 2.7314 22.7593 2.7314 21.2344C2.7314 19.7094 3.97204 18.4688 5.49702 18.4688H17.7783C18.2953 18.4688 18.7158 18.0482 18.7158 17.5312C18.7158 17.5234 18.7159 17.5156 18.7161 17.5078C18.7159 17.5 18.7158 17.4922 18.7158 17.4844C18.7158 16.9674 18.2953 16.5469 17.7783 16.5469H5.80968C4.14548 16.5469 2.61824 15.5172 1.91877 13.9237C1.7107 13.4496 1.92632 12.8965 2.40041 12.6884C2.87451 12.4803 3.42754 12.696 3.63566 13.17C4.02993 14.0684 4.90359 14.6719 5.80968 14.6719H17.078L17.9147 6.98438H2.29091L2.74963 9.18356C2.85534 9.69042 2.53016 10.187 2.0233 10.2927C1.95876 10.3062 1.8944 10.3127 1.83093 10.3127C1.39631 10.3127 1.0064 10.0087 0.914148 9.56644L0.219976 6.23831C0.162321 5.96203 0.23221 5.6745 0.410242 5.4555ZM5.49707 20.3438C5.00596 20.3438 4.60645 20.7433 4.60645 21.2344C4.60645 21.7255 5.00596 22.125 5.49707 22.125C5.98818 22.125 6.3877 21.7255 6.3877 21.2344C6.3877 20.7433 5.98818 20.3438 5.49707 20.3438ZM14.7783 20.3438C14.2872 20.3438 13.8877 20.7433 13.8877 21.2344C13.8877 21.7255 14.2872 22.125 14.7783 22.125C15.2694 22.125 15.6689 21.7255 15.6689 21.2344C15.6689 20.7433 15.2694 20.3438 14.7783 20.3438Z"/>
</symbol>
 <symbol id="search" viewBox="0 0 20 20">
 <title>search</title>
<path d="M11.7564 16.4718C16.2977 16.4718 19.9923 12.7772 19.9923 8.23588C19.9923 3.69459 16.2977 0 11.7564 0C7.21514 0 3.52055 3.69459 3.52055 8.23588C3.52055 12.7772 7.21514 16.4718 11.7564 16.4718ZM11.7564 1.5613C15.4368 1.5613 18.431 4.5555 18.431 8.23588C18.431 11.9163 15.4368 14.9105 11.7564 14.9105C8.07604 14.9105 5.08185 11.9163 5.08185 8.23588C5.08185 4.5555 8.07604 1.5613 11.7564 1.5613ZM0.236227 19.7713C-0.0686169 19.4665 -0.0686169 18.9722 0.236227 18.6673L3.72965 15.1739C4.03453 14.869 4.52884 14.869 4.83368 15.1739C5.13853 15.4788 5.13853 15.9731 4.83368 16.2779L1.34027 19.7713C1.18784 19.9238 0.988035 20 0.788227 20C0.588419 20 0.388689 19.9238 0.236227 19.7713Z" />
</symbol>
 </defs>
</svg>