<svg xmlns="http://www.w3.org/2000/svg">
 <defs>
 <symbol id="chevron" viewBox="0 0 10 6">
 <title>chevron</title>
 <path d="M5.35692 5.60686L9.85238 1.1099C10.0492 0.91258 10.0492 0.592884 9.85238 0.395063C9.65556 0.19774 9.33586 0.19774 9.13904 0.395063L5.00027 4.53532L0.861504 0.395562C0.664679 0.198238 0.344983 0.198238 0.147659 0.395562C-0.0491657 0.592885 -0.0491657 0.913078 0.147659 1.1104L4.64312 5.60736C4.83791 5.80169 5.16263 5.80169 5.35692 5.60686Z"/>
</symbol>
 <symbol id="user" viewBox="0 0 24 24">
 <title>user</title>
<path d="M0.0604954 20.5651C0.16601 20.0582 0.662369 19.7329 1.16942 19.8384C1.67632 19.9439 2.00168 20.4404 1.89612 20.9473C1.83532 21.2393 1.90774 21.5385 2.09468 21.7685C2.20296 21.9016 2.44442 22.125 2.84464 22.125H21.1547C21.5549 22.125 21.7963 21.9016 21.9046 21.7685C22.0916 21.5385 22.164 21.2393 22.1032 20.9473C21.1302 16.2741 17.0083 12.8603 12.2482 12.7452C12.1657 12.7484 12.0829 12.75 11.9997 12.75C11.9161 12.75 11.833 12.7484 11.7502 12.7452C8.39712 12.8256 5.29793 14.5239 3.4211 17.323C3.13278 17.7531 2.55045 17.8679 2.12032 17.5796C1.69029 17.2913 1.5754 16.7089 1.86378 16.2788C3.40207 13.9846 5.63581 12.3163 8.18271 11.478C6.63068 10.3142 5.62465 8.45986 5.62465 6.375C5.62465 2.85984 8.48445 0 11.9997 0C15.5149 0 18.3747 2.85984 18.3747 6.375C18.3747 8.46113 17.3674 10.3164 15.8137 11.4802C17.2372 11.9489 18.5729 12.6781 19.742 13.6397C21.8857 15.403 23.3762 17.8625 23.9388 20.5651C24.1152 21.412 23.9039 22.2818 23.3593 22.9515C22.8174 23.6178 22.0138 24 21.1547 24H2.84468C1.98551 24 1.18193 23.6178 0.640057 22.9515C0.0953693 22.2818 -0.115849 21.412 0.0604954 20.5651ZM16.4997 6.375C16.4997 3.89367 14.481 1.875 11.9997 1.875C9.51832 1.875 7.49965 3.89367 7.49965 6.375C7.49965 8.77992 9.39598 10.7503 11.7719 10.8693C11.8477 10.8679 11.9236 10.8672 11.9997 10.8672C12.0753 10.8672 12.151 10.8679 12.2265 10.8693C14.6029 10.7508 16.4997 8.78025 16.4997 6.375Z" />
</symbol>
 <symbol id="heart" viewBox="0 0 25 22">
 <title>heart</title>
<path d="M22.3097 2.71128C21.1306 1.51723 19.5047 0.859619 17.7314 0.859619C14.6313 0.859619 13.0284 2.45478 12.2297 3.79292C12.2197 3.80951 12.2099 3.82615 12.2002 3.84274C12.1905 3.82615 12.1806 3.80951 12.1707 3.79292C11.372 2.45478 9.76907 0.859619 6.66895 0.859619C4.89571 0.859619 3.2698 1.51723 2.09066 2.71132C0.853914 3.96378 0.200195 5.67823 0.200195 7.66934C0.200195 11.8974 3.95868 14.7006 7.27466 17.1739C8.92696 18.4062 10.4876 19.5703 11.4699 20.7907C11.6478 21.0118 11.9164 21.1404 12.2002 21.1404C12.484 21.1404 12.7526 21.0118 12.9306 20.7908C13.4358 20.163 14.1381 19.4956 15.1408 18.6902C15.5444 18.366 15.6089 17.7759 15.2846 17.3722C14.9604 16.9686 14.3703 16.9041 13.9666 17.2283C13.2592 17.7965 12.6806 18.3104 12.2006 18.7988C11.1409 17.7184 9.79954 16.718 8.39568 15.6709C5.28834 13.3533 2.0752 10.9567 2.0752 7.66934C2.0752 4.76384 3.96421 2.73462 6.66895 2.73462C8.42765 2.73462 9.72627 3.39626 10.5286 4.70112C11.1657 5.73692 11.2648 6.81509 11.2654 6.82174C11.303 7.31014 11.7102 7.68931 12.2 7.68931C12.6899 7.68931 13.097 7.31426 13.1346 6.82587C13.1355 6.81509 13.2346 5.73692 13.8717 4.70112C14.6741 3.39626 15.9727 2.73462 17.7314 2.73462C20.4362 2.73462 22.3252 4.76384 22.3252 7.66934C22.3252 10.3899 20.1103 12.4992 17.7167 14.3733C17.3091 14.6924 17.2373 15.2817 17.5565 15.6894C17.8756 16.097 18.4649 16.1688 18.8726 15.8495C20.0112 14.958 21.4544 13.7533 22.5159 12.3386C23.6492 10.8281 24.2002 9.30078 24.2002 7.66934C24.2002 5.67823 23.5465 3.96378 22.3097 2.71128Z" />
</symbol>
 <symbol id="cart" viewBox="0 0 24 25">
 <title>cart</title>
<path d="M0.410242 5.4555C0.588272 5.2365 0.855461 5.10938 1.1377 5.10938H18.1188L18.1884 4.47038L18.1909 4.44984C18.5237 1.91306 20.7041 0 23.2627 0C23.7805 0 24.2002 0.419719 24.2002 0.9375C24.2002 1.45528 23.7805 1.875 23.2627 1.875C21.6452 1.875 20.2663 3.08198 20.0512 4.68412L18.9368 14.9217C19.9114 15.364 20.5908 16.3463 20.5908 17.4844C20.5908 17.4922 20.5907 17.5 20.5905 17.5078C20.5907 17.5156 20.5908 17.5234 20.5908 17.5312C20.5908 19.0821 19.3291 20.3438 17.7783 20.3438H17.3969C17.4922 20.6233 17.5439 20.9229 17.5439 21.2344C17.5439 22.7593 16.3033 24 14.7783 24C13.2533 24 12.0127 22.7593 12.0127 21.2344C12.0127 20.9229 12.0644 20.6233 12.1598 20.3438H8.11555C8.2109 20.6233 8.26265 20.9229 8.26265 21.2344C8.26265 22.7593 7.02201 24 5.49702 24C3.97204 24 2.7314 22.7593 2.7314 21.2344C2.7314 19.7094 3.97204 18.4688 5.49702 18.4688H17.7783C18.2953 18.4688 18.7158 18.0482 18.7158 17.5312C18.7158 17.5234 18.7159 17.5156 18.7161 17.5078C18.7159 17.5 18.7158 17.4922 18.7158 17.4844C18.7158 16.9674 18.2953 16.5469 17.7783 16.5469H5.80968C4.14548 16.5469 2.61824 15.5172 1.91877 13.9237C1.7107 13.4496 1.92632 12.8965 2.40041 12.6884C2.87451 12.4803 3.42754 12.696 3.63566 13.17C4.02993 14.0684 4.90359 14.6719 5.80968 14.6719H17.078L17.9147 6.98438H2.29091L2.74963 9.18356C2.85534 9.69042 2.53016 10.187 2.0233 10.2927C1.95876 10.3062 1.8944 10.3127 1.83093 10.3127C1.39631 10.3127 1.0064 10.0087 0.914148 9.56644L0.219976 6.23831C0.162321 5.96203 0.23221 5.6745 0.410242 5.4555ZM5.49707 20.3438C5.00596 20.3438 4.60645 20.7433 4.60645 21.2344C4.60645 21.7255 5.00596 22.125 5.49707 22.125C5.98818 22.125 6.3877 21.7255 6.3877 21.2344C6.3877 20.7433 5.98818 20.3438 5.49707 20.3438ZM14.7783 20.3438C14.2872 20.3438 13.8877 20.7433 13.8877 21.2344C13.8877 21.7255 14.2872 22.125 14.7783 22.125C15.2694 22.125 15.6689 21.7255 15.6689 21.2344C15.6689 20.7433 15.2694 20.3438 14.7783 20.3438Z"/>
</symbol>
 <symbol id="search" viewBox="0 0 20 20">
 <title>search</title>
<path d="M11.7564 16.4718C16.2977 16.4718 19.9923 12.7772 19.9923 8.23588C19.9923 3.69459 16.2977 0 11.7564 0C7.21514 0 3.52055 3.69459 3.52055 8.23588C3.52055 12.7772 7.21514 16.4718 11.7564 16.4718ZM11.7564 1.5613C15.4368 1.5613 18.431 4.5555 18.431 8.23588C18.431 11.9163 15.4368 14.9105 11.7564 14.9105C8.07604 14.9105 5.08185 11.9163 5.08185 8.23588C5.08185 4.5555 8.07604 1.5613 11.7564 1.5613ZM0.236227 19.7713C-0.0686169 19.4665 -0.0686169 18.9722 0.236227 18.6673L3.72965 15.1739C4.03453 14.869 4.52884 14.869 4.83368 15.1739C5.13853 15.4788 5.13853 15.9731 4.83368 16.2779L1.34027 19.7713C1.18784 19.9238 0.988035 20 0.788227 20C0.588419 20 0.388689 19.9238 0.236227 19.7713Z" />
</symbol>
 <symbol id="hotsale" viewBox="0 0 20 20">
 <title>hotsale</title>
<g clip-path="url(#clip0_102_150)">
<path d="M10 20.9282C12.2597 20.9282 14.3842 20.0482 15.9821 18.4503C17.58 16.8524 18.46 14.728 18.46 12.4682C18.46 10.91 18.0389 9.39094 17.2423 8.07497C17.1515 7.92501 16.9721 7.85384 16.8031 7.90102C16.6343 7.94813 16.5175 8.102 16.5175 8.27727C16.5175 9.13036 15.8204 10.122 14.9216 10.122C14.0386 10.122 13.3202 9.40356 13.3202 8.52051C13.3202 8.21778 13.4026 7.92509 13.5585 7.67415C13.8454 7.22063 13.9979 6.69024 13.9979 6.14297C13.9979 4.60829 12.7985 3.34954 11.267 3.27626C10.6542 3.2393 10.1745 2.7293 10.1745 2.1143C10.1745 1.89989 10.2298 1.69415 10.3343 1.5193C10.4121 1.3893 10.4077 1.2261 10.323 1.10047C10.2384 0.97481 10.0887 0.909537 9.93906 0.932818C9.2552 1.03919 8.6277 1.38735 8.17223 1.91321C7.71129 2.44532 7.45742 3.12579 7.45742 3.82926C7.45742 4.42868 7.63856 5.00696 7.98117 5.50165C7.98266 5.50376 7.9841 5.50583 7.98559 5.5079C8.20289 5.80872 8.3177 6.16255 8.3177 6.53106C8.3177 7.49133 7.53649 8.27255 6.57621 8.27255C5.63465 8.27255 4.86977 7.5379 4.835 6.60012C4.8293 6.44669 4.73426 6.31087 4.59207 6.25286C4.44992 6.19497 4.28699 6.22563 4.17563 6.33137C3.35207 7.11352 2.70395 8.03563 2.24938 9.07204C1.77872 10.1451 1.54008 11.2877 1.54008 12.4682C1.54008 14.1111 2.01156 15.7043 2.90356 17.0756C3.02125 17.2563 3.26317 17.3076 3.44403 17.19C3.62485 17.0724 3.67606 16.8304 3.55848 16.6495C2.7491 15.4054 2.32133 13.9595 2.32133 12.4682C2.32133 10.5847 2.9875 8.81782 4.21137 7.42055C4.5691 8.38016 5.49172 9.0538 6.57621 9.0538C7.96723 9.0538 9.09895 7.92208 9.09895 6.53106C9.09895 5.99868 8.93383 5.48798 8.62141 5.05391C8.37098 4.69122 8.23863 4.26782 8.23863 3.82926C8.23863 3.0161 8.70832 2.28473 9.4025 1.92137C9.39633 1.98516 9.39324 2.04954 9.39324 2.1143C9.39324 3.14325 10.1972 3.99626 11.2235 4.0563C11.225 4.05641 11.2264 4.05649 11.2279 4.05657C12.3431 4.10895 13.2166 5.02544 13.2166 6.14297C13.2166 6.54215 13.106 6.92817 12.8966 7.25919C12.6621 7.63673 12.539 8.07196 12.539 8.52051C12.539 9.83438 13.6079 10.9032 14.9217 10.9032C15.557 10.9032 16.1618 10.6041 16.6248 10.0609C16.7962 9.85985 16.9383 9.63512 17.0472 9.39747C17.4624 10.3582 17.6788 11.4029 17.6788 12.4682C17.6787 16.7023 14.2341 20.1469 10 20.1469C8.56367 20.1469 7.16324 19.748 5.95008 18.9934C5.76692 18.8794 5.52598 18.9356 5.41207 19.1187C5.29813 19.3019 5.35426 19.5428 5.53742 19.6567C6.87453 20.4885 8.4177 20.9282 10 20.9282Z" />
<path d="M11.0812 17.2531C11.1385 17.2531 11.1966 17.2405 11.2516 17.2138C11.4457 17.1195 11.5266 16.8858 11.4323 16.6918L9.28296 12.2658C9.18874 12.0717 8.95492 11.9908 8.76097 12.085C8.56691 12.1792 8.48597 12.413 8.58023 12.607L10.7296 17.033C10.7971 17.1721 10.9364 17.2531 11.0812 17.2531Z" />
<path d="M11.9061 13.9999C12.5954 13.9999 13.1562 13.4391 13.1562 12.7497C13.1562 12.0603 12.5954 11.4995 11.9061 11.4995C11.2167 11.4995 10.6558 12.0603 10.6558 12.7497C10.6558 13.4391 11.2166 13.9999 11.9061 13.9999ZM11.9061 12.2807C12.1646 12.2807 12.375 12.4911 12.375 12.7497C12.375 13.0083 12.1646 13.2187 11.9061 13.2187C11.6475 13.2187 11.4371 13.0083 11.4371 12.7497C11.4371 12.4911 11.6475 12.2807 11.9061 12.2807Z" />
<path d="M8.094 17.812C8.78338 17.812 9.34424 17.2512 9.34424 16.5619C9.34424 15.8725 8.78342 15.3116 8.094 15.3116C7.40466 15.3116 6.8438 15.8724 6.8438 16.5619C6.8438 17.2512 7.40466 17.812 8.094 17.812ZM8.094 16.0929C8.3526 16.0929 8.56299 16.3033 8.56299 16.5619C8.56299 16.8204 8.3526 17.0308 8.094 17.0308C7.83545 17.0308 7.62506 16.8204 7.62506 16.5619C7.62506 16.3033 7.83545 16.0929 8.094 16.0929Z" />
<path d="M4.36084 18.6309C4.46397 18.6309 4.56475 18.5891 4.63736 18.5164C4.71002 18.4438 4.75146 18.343 4.75146 18.2403C4.75146 18.1371 4.71002 18.0367 4.63736 17.9641C4.56475 17.8915 4.46397 17.8496 4.36084 17.8496C4.25807 17.8496 4.15772 17.8914 4.08502 17.9641C4.01197 18.0367 3.97022 18.1375 3.97022 18.2403C3.97022 18.343 4.01197 18.4438 4.08502 18.5164C4.15768 18.5891 4.25807 18.6309 4.36084 18.6309Z" />
</g>
</symbol>
 <symbol id="bell" viewBox="0 0 20 20">
 <title>bell</title>
<g clip-path="url(#clip0_102_128)">
<path d="M18.1999 4.6498L17.8745 5.56476C17.8606 5.60394 17.833 5.635 17.7982 5.65066L16.9853 6.01691C16.8704 6.06867 16.8704 6.25164 16.9853 6.30335L17.7982 6.6696C17.833 6.68527 17.8606 6.71632 17.8745 6.7555L18.1999 7.67046C18.2459 7.79972 18.4084 7.79972 18.4544 7.67046L18.7798 6.7555C18.7937 6.71632 18.8213 6.68527 18.8561 6.6696L19.669 6.30335C19.7838 6.2516 19.7838 6.06863 19.669 6.01691L18.8561 5.65066C18.8213 5.635 18.7937 5.60394 18.7798 5.56476L18.4544 4.6498C18.4084 4.52054 18.2459 4.52054 18.1999 4.6498Z" />
<path d="M14.1598 0.818628L13.9184 1.4973C13.9081 1.52636 13.8877 1.54937 13.8618 1.56101L13.2588 1.83269C13.1736 1.87109 13.1736 2.00679 13.2588 2.04519L13.8618 2.31687C13.8877 2.32851 13.9081 2.35152 13.9184 2.38058L14.1598 3.05929C14.1939 3.15519 14.3145 3.15519 14.3486 3.05929L14.59 2.38058C14.6003 2.35152 14.6208 2.32851 14.6466 2.31687L15.2496 2.04519C15.3348 2.00679 15.3348 1.87109 15.2496 1.83269L14.6466 1.56101C14.6208 1.54937 14.6003 1.52636 14.59 1.4973L14.3486 0.818628C14.3145 0.722729 14.1939 0.722729 14.1598 0.818628Z" />
<path d="M0.254512 4.07161C0.163474 3.6898 0.399191 3.30648 0.781 3.21545C1.16281 3.12441 1.54613 3.36013 1.63716 3.74193C1.7282 4.12374 1.49248 4.50706 1.11068 4.5981C0.728868 4.68913 0.34555 4.45342 0.254512 4.07161Z" />
<path d="M17.5981 3.00698C17.4288 3.00698 17.2916 2.86976 17.2916 2.7005C17.2916 2.53123 17.4288 2.39401 17.5981 2.39401C17.7673 2.39401 17.9045 2.53123 17.9045 2.7005C17.9045 2.86976 17.7673 3.00698 17.5981 3.00698Z" />
<path d="M2.47392 6.7595C2.83825 5.61731 3.48356 4.62719 4.34431 3.86438L3.93642 3.1579C3.71903 2.78141 3.6613 2.34286 3.77384 1.92294C3.88634 1.50301 4.15563 1.15208 4.53212 0.934733C5.30931 0.486022 6.30657 0.753288 6.75528 1.53044L7.25427 2.39469C8.41825 2.14626 9.63876 2.22852 10.8055 2.64805C12.4814 3.25071 13.8458 4.47708 14.6474 6.10133C14.6506 6.10786 14.6578 6.1229 14.6688 6.14575C14.9852 6.80579 15.6297 8.09923 16.3901 9.34626C17.049 10.4267 17.5529 11.0733 17.926 11.4595C18.5413 11.2927 19.2104 11.5784 19.5029 12.1713L19.5184 12.2027C19.6793 12.5288 19.7036 12.8981 19.5868 13.2426C19.47 13.587 19.226 13.8654 18.8999 14.0263L12.7343 17.0689C12.905 17.4083 13.0014 17.791 13.0014 18.1961C13.0014 19.5861 11.8706 20.7169 10.4806 20.7169C9.48603 20.7169 8.62466 20.1377 8.21478 19.2992L6.58044 20.1057C6.38724 20.201 6.18216 20.2461 5.98001 20.2461C5.47767 20.2461 4.99368 19.9673 4.75681 19.4873L4.74122 19.4557C4.46919 18.9045 4.6061 18.2563 5.03411 17.857C4.95587 17.2869 4.73825 16.4082 4.23208 15.0602C3.61122 13.4068 2.88474 11.924 2.87751 11.9094C2.07603 10.2852 1.93266 8.45622 2.47392 6.7595ZM6.06915 1.92649C5.95759 1.73329 5.77751 1.59509 5.562 1.53735C5.49005 1.51805 5.417 1.50852 5.34446 1.50852C5.19974 1.50852 5.05688 1.54649 4.92821 1.62079C4.73501 1.73235 4.59681 1.91243 4.53907 2.12794C4.48134 2.34344 4.51099 2.56852 4.62251 2.76173L4.97521 3.37262C5.2229 3.20348 5.48372 3.0504 5.7572 2.91548C5.98954 2.80083 6.22673 2.70141 6.46755 2.61653L6.06915 1.92649ZM10.4806 19.9247C11.4337 19.9247 12.2092 19.1493 12.2092 18.1961C12.2092 17.9168 12.1424 17.653 12.0242 17.4194L8.92563 18.9485C9.20571 19.5256 9.79704 19.9247 10.4806 19.9247ZM5.45169 19.105L5.46727 19.1366C5.60618 19.4182 5.94829 19.5342 6.22989 19.3952L18.5493 13.3159C18.6857 13.2486 18.7877 13.1322 18.8365 12.9882C18.8854 12.8441 18.8752 12.6897 18.8078 12.5531L18.7924 12.5218C18.6534 12.2402 18.3113 12.1242 18.0297 12.2632L5.71036 18.3425C5.42884 18.4815 5.31278 18.8236 5.45169 19.105ZM3.58798 11.5588C3.59532 11.5736 4.33895 13.0911 4.9736 14.7813C5.40704 15.9355 5.64903 16.7898 5.76841 17.4304L17.1669 11.8055C16.7651 11.3518 16.2867 10.6984 15.7137 9.75876C14.9352 8.48212 14.2773 7.16173 13.9543 6.48829C13.9454 6.46962 13.9395 6.45731 13.9368 6.45192C13.2266 5.01258 12.0193 3.92641 10.5374 3.39356C9.06064 2.86251 7.48751 2.94501 6.10782 3.62591C4.72814 4.30673 3.70567 5.50508 3.22872 7.0002C2.75013 8.50055 2.87774 10.1195 3.58798 11.5588Z" />
<path d="M12.0589 6.50203C12.1465 6.50203 12.2345 6.4732 12.3078 6.41386C12.4779 6.27625 12.5043 6.02683 12.3667 5.85675C11.9956 5.39804 11.5573 5.00211 11.064 4.67996C10.8808 4.56031 10.6353 4.61187 10.5157 4.79508C10.3961 4.97828 10.4476 5.22371 10.6308 5.34332C11.0549 5.62023 11.4317 5.96062 11.7508 6.355C11.829 6.45175 11.9434 6.50203 12.0589 6.50203Z" />
<path d="M9.6412 4.82809C9.80781 4.82809 9.96281 4.72215 10.0175 4.55524C10.0857 4.34735 9.97238 4.1236 9.76449 4.05543C9.61398 4.0061 9.45921 3.96281 9.30449 3.92676C9.09144 3.87707 8.87843 4.00953 8.82882 4.22262C8.77917 4.43567 8.91163 4.64863 9.12468 4.69832C9.25687 4.72914 9.38913 4.7661 9.51769 4.80824C9.55871 4.82168 9.60031 4.82809 9.6412 4.82809Z" />
</g>
</symbol>
 <symbol id="discount" viewBox="0 0 20 20">
 <title>discount</title>
<g clip-path="url(#clip0_102_139)">
<path d="M1.81678 11.8478C1.98006 11.4537 2.34654 11.2088 2.77318 11.2088H3.51525V0.896301C3.51525 0.680598 3.69014 0.505676 3.90588 0.505676H8.24181C8.45756 0.505676 8.63244 0.680598 8.63244 0.896301C8.63244 1.112 8.45756 1.28693 8.24181 1.28693H4.2965V11.5994C4.2965 11.8151 4.12162 11.9901 3.90588 11.9901H2.77318C2.62002 11.9901 2.55807 12.0997 2.53853 12.1468C2.519 12.194 2.48529 12.3153 2.59357 12.4236L9.82006 19.6501C9.91904 19.7491 10.0802 19.7491 10.1792 19.6501L17.4056 12.4236C17.5139 12.3153 17.4802 12.194 17.4607 12.1468C17.4411 12.0997 17.3792 11.9901 17.226 11.9901H16.0934C15.8776 11.9901 15.7028 11.8151 15.7028 11.5994V1.28693H11.7574C11.5417 1.28693 11.3668 1.112 11.3668 0.896301C11.3668 0.680598 11.5417 0.505676 11.7574 0.505676H16.0934C16.3091 0.505676 16.484 0.680598 16.484 0.896301V11.2088H17.2261C17.6528 11.2088 18.0192 11.4537 18.1825 11.8478C18.3458 12.242 18.2598 12.6743 17.9581 12.976L10.7317 20.2025C10.5361 20.398 10.2762 20.5057 9.99963 20.5057C9.7231 20.5057 9.46314 20.398 9.2676 20.2025L2.04115 12.976C1.73951 12.6743 1.6535 12.242 1.81678 11.8478Z" />
<path d="M11.245 7.94269C11.19 7.96941 11.1319 7.98202 11.0747 7.98202C10.9298 7.98202 10.7906 7.90105 10.723 7.76195L8.57362 3.33593C8.47936 3.14187 8.5603 2.90816 8.75436 2.81394C8.94854 2.7196 9.18217 2.80062 9.27639 2.99468L11.4258 7.4207C11.52 7.61472 11.4391 7.84847 11.245 7.94269Z" />
<path d="M7.99145 5.64142C8.68071 5.64142 9.24146 6.20216 9.24146 6.89142C9.24146 7.58067 8.68071 8.14142 7.99145 8.14142C7.30219 8.14142 6.74145 7.58067 6.74145 6.89142C6.74145 6.20216 7.30219 5.64142 7.99145 5.64142ZM7.99145 7.36017C8.24993 7.36017 8.4602 7.14989 8.4602 6.89142C8.4602 6.63294 8.24993 6.42267 7.99145 6.42267C7.73297 6.42267 7.5227 6.63294 7.5227 6.89142C7.5227 7.14989 7.73297 7.36017 7.99145 7.36017Z" />
<path d="M13.2581 3.86527C13.2581 4.55452 12.6973 5.11527 12.0081 5.11527C11.3188 5.11527 10.7581 4.55452 10.7581 3.86527C10.7581 3.17601 11.3188 2.61526 12.0081 2.61526C12.6973 2.61526 13.2581 3.17601 13.2581 3.86527ZM11.5393 3.86527C11.5393 4.12374 11.7496 4.33402 12.0081 4.33402C12.2665 4.33402 12.4768 4.12374 12.4768 3.86527C12.4768 3.60679 12.2665 3.39651 12.0081 3.39651C11.7496 3.39651 11.5393 3.60679 11.5393 3.86527Z" />
<path d="M8.43728 10.9127C8.22153 10.9127 8.04665 10.7377 8.04665 10.522C8.04665 10.3063 8.22153 10.1314 8.43728 10.1314H9.69458C9.91032 10.1314 10.0852 10.3063 10.0852 10.522V13.6241C10.0852 13.8398 9.91032 14.0148 9.69458 14.0148C9.47884 14.0148 9.30396 13.8398 9.30396 13.6241V12.4343H8.53716C8.32142 12.4343 8.14653 12.2594 8.14653 12.0437C8.14653 11.828 8.32142 11.6531 8.53716 11.6531H9.30396V10.9127H8.43728Z" />
<path d="M12.8196 10.12C13.8965 10.12 14.7727 10.9962 14.7727 12.0732C14.7727 13.1501 13.8965 14.0263 12.8196 14.0263C11.7426 14.0263 10.8665 13.1501 10.8665 12.0732C10.8665 10.9962 11.7426 10.12 12.8196 10.12ZM12.8196 13.245C13.4658 13.245 13.9915 12.7193 13.9915 12.0732C13.9915 11.427 13.4658 10.9013 12.8196 10.9013C12.1734 10.9013 11.6477 11.427 11.6477 12.0732C11.6477 12.7193 12.1734 13.245 12.8196 13.245Z" />
<path d="M5.61769 10.9127C5.40195 10.9127 5.22707 10.7377 5.22707 10.522C5.22707 10.3063 5.40195 10.1314 5.61769 10.1314H6.875C7.09074 10.1314 7.26562 10.3063 7.26562 10.522V13.6241C7.26562 13.8398 7.09074 14.0148 6.875 14.0148C6.65926 14.0148 6.48437 13.8398 6.48437 13.6241V12.4343H5.71758C5.50183 12.4343 5.32695 12.2594 5.32695 12.0437C5.32695 11.828 5.50183 11.6531 5.71758 11.6531H6.48437V10.9127H5.61769Z" />
<path d="M10 1.28693C9.89727 1.28693 9.79648 1.24513 9.72383 1.17243C9.65117 1.09982 9.60938 0.999036 9.60938 0.896301C9.60938 0.793567 9.65117 0.692786 9.72383 0.620129C9.79648 0.547473 9.89727 0.505676 10 0.505676C10.1027 0.505676 10.2035 0.547434 10.2762 0.620129C10.3488 0.692786 10.3906 0.793567 10.3906 0.896301C10.3906 0.999036 10.3488 1.09982 10.2762 1.17243C10.2035 1.24513 10.1027 1.28693 10 1.28693Z" />
</g>
</symbol>
 <symbol id="vegetable" viewBox="0 0 20 20">
 <title>vegetable</title>
<g clip-path="url(#clip0_102_164)">
<path d="M0.3125 11.3173C0.3125 9.95663 0.972187 8.65725 2.07719 7.84163C2.3025 7.67475 2.58187 7.58319 2.86344 7.58319C3.21594 7.58319 3.54625 7.72413 3.78875 7.96382C3.83406 7.926 3.87531 7.88444 3.92219 7.8485C4.09562 7.716 4.30375 7.63725 4.5175 7.60475L4.37969 6.08944C4.37656 6.05319 4.375 6.01663 4.375 5.98007C4.375 5.31319 4.9175 4.77069 5.58437 4.77069H5.66563C6.3325 4.77069 6.875 5.31319 6.875 5.98007C6.875 6.01663 6.87344 6.05319 6.87 6.08975L6.73156 7.61163C6.92969 7.64913 7.12125 7.72569 7.28312 7.84632C7.33906 7.88819 7.38875 7.93632 7.4425 7.98038C7.47031 7.95163 7.49969 7.92475 7.53 7.89882C7.51219 7.79475 7.5 7.68944 7.5 7.58319C7.5 7.18632 7.62375 6.80663 7.85313 6.48944C7.62375 6.17225 7.5 5.79288 7.5 5.39569C7.5 4.32569 8.40531 3.4585 9.48406 3.52413C9.68469 2.94913 10.1525 2.51569 10.7275 2.3485C11.1081 1.87382 11.6819 1.61038 12.2966 1.64913C12.5553 0.907566 13.2559 0.395691 14.0625 0.395691C14.7391 0.395691 15.355 0.757566 15.6869 1.33413C16.5144 1.36194 17.2297 1.946 17.4347 2.74163C18.4022 3.10257 19.0625 4.03913 19.0625 5.08319C19.0625 5.92038 18.6506 6.68569 17.9691 7.14819C18.0719 7.38288 18.125 7.63663 18.125 7.89569C18.125 8.45819 17.875 8.981 17.4459 9.33507C17.4819 9.48007 17.5 9.626 17.5 9.77069C17.5 10.7282 16.7781 11.5207 15.85 11.6323L15.1588 13.5682C15.5128 13.8291 15.8144 14.1557 16.0466 14.5307L17.6837 14.1669C17.7459 14.1526 17.81 14.1457 17.8744 14.1457C18.3572 14.1457 18.75 14.5385 18.75 15.0213V15.1451C18.75 15.2326 18.7331 15.3157 18.7091 15.3957H18.75C19.2669 15.3957 19.6875 15.8163 19.6875 16.3332C19.6875 16.8501 19.2669 17.2707 18.75 17.2707H18.7091C18.7331 17.3507 18.75 17.4338 18.75 17.5213V17.6451C18.75 18.1279 18.3572 18.5207 17.8744 18.5207C17.81 18.5207 17.7459 18.5138 17.6844 18.4998L16.0466 18.1357C15.44 19.1151 14.3591 19.7707 13.125 19.7707H13.0516C12.8778 19.7707 12.7019 19.7573 12.5291 19.7307L1.81312 18.0823C0.943748 17.9482 0.3125 17.2129 0.3125 16.3332C0.3125 15.6298 0.719688 15.0244 1.32594 14.7391C0.678438 13.9657 0.3125 12.9844 0.3125 11.9741V11.3173ZM4.30219 8.34507C3.36938 9.05819 2.8125 10.1941 2.8125 11.3844V12.5323C2.8125 13.1729 2.97219 13.8001 3.27312 14.3598L5.77906 13.9741C5.88219 13.5207 5.9375 13.0576 5.9375 12.5926V11.3238C5.9375 11.0088 5.90594 10.6941 5.85812 10.3823C5.78156 10.3888 5.70531 10.3957 5.625 10.3957C4.73406 10.3957 4.0625 9.99257 4.0625 9.45819C4.0625 9.16319 4.26656 8.90132 4.62 8.72944L4.57406 8.22382C4.47656 8.2435 4.38281 8.28288 4.30219 8.34507ZM5.66563 5.39569H5.58406C5.26188 5.39569 4.99969 5.65788 4.99969 5.98007C4.99969 5.99788 5.00031 6.01569 5.00219 6.03319L5.28594 9.15413L5.0475 9.23069C4.77375 9.31819 4.6875 9.4335 4.6875 9.45819C4.6875 9.536 5.02 9.77069 5.625 9.77069C6.23 9.77069 6.5625 9.536 6.5625 9.45819C6.5625 9.4335 6.47625 9.31819 6.2025 9.23038L5.96406 9.15382L6.24781 6.03319C6.24938 6.01538 6.25 5.99757 6.25 5.98007C6.25 5.65788 5.98781 5.39569 5.66563 5.39569ZM6.675 8.23413L6.63 8.72944C6.98344 8.90132 7.1875 9.16319 7.1875 9.45819C7.1875 9.80257 6.90656 10.0904 6.47 10.2529C6.52594 10.6076 6.5625 10.9657 6.5625 11.3238V12.5926C6.5625 13.0219 6.52125 13.4507 6.44125 13.8723L8.28344 13.5888C8.38375 13.2454 8.4375 12.8913 8.4375 12.5319V11.3841C8.4375 10.1957 7.86625 9.06007 6.90938 8.34694C6.83969 8.29507 6.75938 8.25694 6.675 8.23413ZM10.0522 13.3166C10.2219 12.8873 10.3125 12.4376 10.3125 11.9741V11.3169C10.3125 10.1538 9.7475 9.04257 8.80156 8.34382C8.68281 8.25632 8.53531 8.20819 8.38656 8.20819C8.19781 8.20819 8.02406 8.28413 7.89688 8.41132C8.63375 9.21882 9.0625 10.2794 9.0625 11.3844V12.5323C9.0625 12.8544 9.02406 13.1732 8.95437 13.4857L10.0522 13.3166ZM10.0228 3.92725L9.96594 4.24882L9.64719 4.17788C9.55031 4.15632 9.46125 4.14569 9.375 4.14569C8.68563 4.14569 8.125 4.70632 8.125 5.39569C8.125 5.72413 8.2525 6.03475 8.48375 6.27038L8.69875 6.48944L8.48375 6.7085C8.2525 6.94413 8.125 7.25475 8.125 7.58319C8.125 7.59257 8.12687 7.60194 8.12687 7.61163C8.21156 7.59475 8.29781 7.58319 8.38656 7.58319C8.66813 7.58319 8.9475 7.67475 9.17281 7.84132C9.74156 8.261 10.1894 8.81007 10.4931 9.4285C10.6116 9.05975 10.7359 8.70663 10.8641 8.37132C10.575 6.84444 9.50281 5.96069 9.49187 5.95163L9.6875 5.70819L9.88281 5.46413C9.92625 5.49882 10.7716 6.18913 11.2463 7.43444C11.8966 5.94132 12.5103 4.97538 12.5497 4.91413L13.0756 5.25225C13.0672 5.26507 12.5906 6.01475 12.0359 7.20819C12.9706 6.85632 14.0328 6.9535 14.0938 6.95975L14.0316 7.58163C13.5616 7.53444 12.2303 7.55725 11.6084 8.19194C11.3894 8.73038 11.1734 9.32069 10.9828 9.95319C11.9328 9.466 13.0662 9.45819 13.125 9.45819V10.0832C13.1103 10.0832 11.7191 10.0926 10.8956 10.7473C10.9212 10.9354 10.9375 11.1254 10.9375 11.3173V11.9744C10.9375 12.3966 10.8725 12.8094 10.7519 13.2094L12.5291 12.936C12.6228 12.9216 12.7175 12.9119 12.8125 12.9051C13.5019 12.9051 14.0625 12.3401 14.0625 11.646C14.0625 11.5004 14.0334 11.351 13.9766 11.2013L13.8853 10.9623L14.1019 10.8254C14.4684 10.5935 14.6875 10.1994 14.6875 9.77069C14.6875 9.52475 14.6153 9.28632 14.4788 9.08069L14.2841 8.78819L14.5972 8.62913C15.2313 8.30663 15.625 7.66663 15.625 6.95819C15.625 6.12663 15.0662 5.386 14.2659 5.15694L14.0719 5.10132L14.0428 4.90163C13.9538 4.29257 13.4247 3.83319 12.8125 3.83319C12.8009 3.83319 12.7897 3.83569 12.7784 3.83725C12.7566 3.84038 12.7344 3.84319 12.7122 3.84475L12.4881 3.86288L12.4 3.656C12.2028 3.19413 11.7516 2.89569 11.25 2.89569C10.6444 2.89569 10.1284 3.32944 10.0228 3.92725ZM15.4047 11.0207H15.625C16.3144 11.0207 16.875 10.4601 16.875 9.77069C16.875 9.62475 16.8459 9.47538 16.7891 9.32632L16.6975 9.08725L16.9141 8.95038C17.2809 8.7185 17.5 8.32444 17.5 7.89569C17.5 7.64975 17.4278 7.41132 17.2912 7.20569L17.0966 6.91319L17.4097 6.75413C18.0438 6.43163 18.4375 5.79163 18.4375 5.08319C18.4375 4.25163 17.8788 3.511 17.0788 3.28194L16.8847 3.22632L16.8556 3.02663C16.7662 2.41757 16.2372 1.95819 15.625 1.95819C15.6131 1.95819 15.6016 1.96069 15.59 1.96225C15.5687 1.96507 15.5475 1.96788 15.5256 1.96975L15.3006 1.9885L15.2122 1.78069C15.0153 1.31913 14.5641 1.02069 14.0625 1.02069C13.4569 1.02069 12.9409 1.45444 12.8353 2.05225L12.7784 2.37382L12.4597 2.30288C12.3628 2.28132 12.2737 2.27069 12.1875 2.27069C12.0437 2.27069 11.9072 2.30225 11.7766 2.34788C12.2359 2.48225 12.6316 2.78725 12.8744 3.20913C13.7019 3.23694 14.4172 3.821 14.6222 4.61663C15.5897 4.97757 16.25 5.91413 16.25 6.95819C16.25 7.79538 15.8381 8.56069 15.1566 9.02319C15.2594 9.25788 15.3125 9.51163 15.3125 9.77069C15.3125 10.3332 15.0625 10.856 14.6334 11.2104C14.6694 11.3554 14.6875 11.501 14.6875 11.6457C14.6875 12.1948 14.4513 12.6882 14.0772 13.0326C14.2628 13.0863 14.4412 13.156 14.6125 13.2388L15.4047 11.0207ZM18.125 15.1451V15.0213C18.125 14.8644 17.9731 14.7435 17.8197 14.7766L16.3325 15.1073C16.3688 15.2016 16.4012 15.2976 16.4291 15.3957H17.8744C18.0125 15.3957 18.125 15.2832 18.125 15.1451ZM19.0625 16.3332C19.0625 16.161 18.9222 16.0207 18.75 16.0207H17.8744H16.5469C16.5559 16.1238 16.5625 16.2276 16.5625 16.3332C16.5625 16.4388 16.5559 16.5426 16.5466 16.6457H17.8744H18.75C18.9222 16.6457 19.0625 16.5054 19.0625 16.3332ZM17.8203 17.8898C17.9684 17.9216 18.125 17.8016 18.125 17.6451V17.5213C18.125 17.3832 18.0125 17.2707 17.8744 17.2707H16.4294C16.4016 17.3688 16.3688 17.4648 16.3328 17.5591L17.8203 17.8898ZM0.9375 16.3332C0.9375 16.9023 1.34562 17.3779 1.90781 17.4644L12.6234 19.1129C12.7653 19.1348 12.9094 19.1457 13.0516 19.1457H13.125C14.6756 19.1457 15.9375 17.8838 15.9375 16.3332C15.9375 14.7826 14.6756 13.5207 13.125 13.5207H13.0516C12.9094 13.5207 12.7653 13.5316 12.6237 13.5532L1.90812 15.2016C1.34562 15.2885 0.9375 15.7641 0.9375 16.3332ZM0.9375 11.9741C0.9375 12.9354 1.32656 13.8654 2.00344 14.5548L2.62437 14.4591C2.33906 13.8598 2.1875 13.2026 2.1875 12.5319V11.3841C2.1875 10.2735 2.61062 9.20757 3.3375 8.39882C3.21125 8.27975 3.04375 8.20819 2.86344 8.20819C2.71437 8.20819 2.56719 8.25632 2.44844 8.34444C1.5025 9.04257 0.9375 10.1541 0.9375 11.3173V11.9741Z" />
<path d="M13.4375 14.7707H12.8125V17.8957H13.4375V14.7707Z" />
<path d="M10.9375 14.7707H10.3125V17.8957H10.9375V14.7707Z" />
<path d="M8.4375 14.7707H7.8125V17.8957H8.4375V14.7707Z" />
<path d="M5.9375 15.3957H5.3125V17.2707H5.9375V15.3957Z" />
<path d="M3.4375 15.7082H2.8125V16.9582H3.4375V15.7082Z" />
</g>
</symbol>
 <symbol id="plastic-bottle" viewBox="0 0 20 20">
 <title>plastic-bottle</title>
<g clip-path="url(#clip0_102_122)">
<path d="M0 15.0457C0 14.4579 0.229376 13.9049 0.645899 13.4883L3.79984 10.3344C3.80344 10.3305 3.80672 10.3264 3.81051 10.3226C3.8143 10.3188 3.81836 10.3156 3.82227 10.312L4.87574 9.25857C5.02832 9.10607 5.27559 9.10607 5.4282 9.25857C5.58074 9.41111 5.58074 9.65846 5.4282 9.81104L4.63977 10.5995L5.94418 11.9039C6.01172 11.9714 6.05215 12.0613 6.05789 12.1567C6.09926 12.8439 6.39293 13.4944 6.88371 13.9872C7.37766 14.4791 8.02816 14.7728 8.71543 14.8142C8.81074 14.8199 8.90066 14.8604 8.9682 14.9279L10.2726 16.2323L14.0579 12.447L12.7541 11.1431C12.6865 11.0756 12.6461 10.9856 12.6404 10.8903C12.5989 10.2017 12.3051 9.55142 11.8129 9.0592C11.3206 8.56693 10.6703 8.27307 9.98172 8.2317C9.88641 8.22596 9.79645 8.18549 9.72895 8.11799L8.42508 6.81412L7.93062 7.30857C7.85434 7.38482 7.75438 7.42299 7.65441 7.42299C7.55445 7.42299 7.45449 7.38482 7.3782 7.30857C7.22566 7.15603 7.22566 6.90869 7.3782 6.75611L8.14863 5.98564C8.14871 5.98557 8.14875 5.98549 8.14883 5.98541C8.14891 5.98533 8.14898 5.98529 8.14906 5.98521L9.09336 5.04088C10.5429 3.59143 11.9187 3.6756 12.9234 3.73709C13.5196 3.77361 13.8666 3.78435 14.0695 3.5815L14.5695 3.08154L14.539 3.05103C14.4657 2.97775 14.4246 2.87834 14.4246 2.77475C14.4246 2.67111 14.4658 2.57174 14.5391 2.4985L15.7525 1.28615C16.0196 1.01904 16.3761 0.871933 16.7562 0.871933C17.1363 0.871933 17.4928 1.01904 17.7599 1.28615L19.5858 3.11205C19.8529 3.37916 20 3.7356 20 4.11572C20 4.49584 19.8529 4.85228 19.5859 5.11928L18.3734 6.33287C18.3002 6.40619 18.2008 6.4474 18.0972 6.44744H18.0971C17.9935 6.44744 17.8941 6.40627 17.8209 6.33303L17.7904 6.30252L17.2904 6.80248C17.0876 7.00529 17.0983 7.35244 17.1348 7.9485C17.1963 8.95318 17.2805 10.3291 15.831 11.7786L14.8867 12.7229C14.8866 12.723 14.8866 12.7231 14.8865 12.7231C14.8865 12.7232 14.8864 12.7233 14.8863 12.7233L10.5594 17.0503C10.5559 17.054 10.5529 17.0578 10.5493 17.0614C10.5457 17.065 10.5418 17.0681 10.5381 17.0715L7.38359 20.226C6.96707 20.6426 6.41398 20.8719 5.82625 20.8719C4.73477 20.8719 3.82668 20.0731 3.6541 19.0293C2.72828 18.876 1.99586 18.1437 1.84266 17.2178C0.798788 17.0453 0 16.1372 0 15.0457ZM19.0334 4.56701C19.1529 4.44744 19.2188 4.28721 19.2188 4.11572C19.2188 3.94424 19.1529 3.784 19.0334 3.66447L17.2075 1.83857C17.0879 1.71904 16.9277 1.65318 16.7562 1.65318C16.5847 1.65318 16.4245 1.71904 16.3048 1.83869L15.3677 2.77494L18.097 5.50424L19.0334 4.56701ZM16.355 7.99623C16.3146 7.33564 16.2764 6.71162 16.738 6.25006L17.2379 5.7501L15.1218 3.634L14.6218 4.13396C14.1602 4.59557 13.5362 4.55732 12.8756 4.51693C11.9244 4.45873 10.8463 4.39271 9.6457 5.59338L8.97742 6.2617L10.1799 7.46416C11.0028 7.54869 11.7739 7.91549 12.3652 8.50674C12.9565 9.09807 13.3232 9.86908 13.4077 10.692L14.6102 11.8945L15.2785 11.2262C16.4792 10.0255 16.4132 8.9474 16.355 7.99623ZM1.8552 16.4234C1.93922 16.0012 2.14566 15.6126 2.45691 15.3003C2.60922 15.1476 2.85649 15.1472 3.00937 15.2994C3.16215 15.4517 3.16258 15.699 3.01027 15.8519C2.74176 16.1213 2.59387 16.4783 2.59387 16.8572C2.59387 17.6407 3.23125 18.2781 4.01473 18.2781C4.39363 18.2781 4.75066 18.1302 5.02008 17.8617C5.17293 17.7094 5.4202 17.7098 5.57254 17.8626C5.7248 18.0154 5.72441 18.2628 5.57164 18.4151C5.25934 18.7263 4.8707 18.9328 4.44859 19.0168C4.6041 19.6331 5.16273 20.0907 5.82625 20.0907C6.20531 20.0907 6.56219 19.9426 6.83117 19.6736L9.72008 16.7846L8.51707 15.5816C7.69586 15.4971 6.92496 15.1309 6.33121 14.5395C5.74098 13.9469 5.37481 13.1761 5.29035 12.3548L4.08731 11.1518L1.19836 14.0407C0.929375 14.3097 0.78125 14.6665 0.78125 15.0456C0.78125 15.7092 1.23883 16.2678 1.8552 16.4234Z" />
<path d="M8.526 9.18654C8.67857 9.03404 8.92584 9.03404 9.07846 9.18654L11.6407 11.7488C11.7933 11.9013 11.7933 12.1487 11.6407 12.3013C11.5644 12.3775 11.4645 12.4157 11.3645 12.4157C11.2646 12.4157 11.1646 12.3775 11.0883 12.3013L8.52603 9.739C8.37346 9.58646 8.37346 9.33912 8.526 9.18654Z" />
<path d="M7.75033 10.5153L10.3126 13.0775C10.4651 13.2301 10.4651 13.4774 10.3126 13.63C10.2363 13.7063 10.1363 13.7444 10.0364 13.7444C9.93639 13.7444 9.83647 13.7063 9.76018 13.63L7.19791 11.0677C7.04537 10.9152 7.04537 10.6679 7.19791 10.5153C7.35049 10.3628 7.59776 10.3628 7.75033 10.5153Z" />
<path d="M6.70661 8.56857C6.6306 8.64455 6.53138 8.68244 6.43204 8.68244C6.33196 8.68244 6.23185 8.644 6.15528 8.56748C6.00275 8.41494 6.00384 8.16646 6.15638 8.01392C6.30896 7.86142 6.55622 7.86142 6.70884 8.01392C6.86138 8.16646 6.86138 8.4138 6.70884 8.56638L6.70661 8.56857Z" />
</g>
</symbol>
 <symbol id="bread" viewBox="0 0 20 20">
 <title>bread</title>
<g clip-path="url(#clip0_102_89)">
<path d="M1.17758 12.0044C1.30105 11.8997 1.48586 11.9149 1.59051 12.0383C1.69515 12.1617 1.68 12.3466 1.55656 12.4512C0.922459 12.989 0.586796 13.5909 0.585936 14.1919C0.58535 14.5954 0.73 14.9364 1.02816 15.2345C1.52672 15.7331 2.45441 16.1045 3.78547 16.3384C4.98035 16.5484 6.4768 16.6503 8.36172 16.6466C11.2718 16.6426 13.3247 16.3908 14.6092 15.8788C14.1144 15.5267 13.5851 15.1042 13.0174 14.6083C12.8456 14.8139 12.5992 14.9498 12.323 14.9777C11.7495 15.0356 11.2333 14.6109 11.1779 14.034C11.1409 13.6482 11.1401 13.2597 11.175 12.8768C10.6607 12.3638 10.1969 11.8795 9.77992 11.4201C9.54508 11.8221 9.38336 12.2457 9.29859 12.684C9.22621 13.0574 9.20836 13.4441 9.24559 13.8332C9.30059 14.4098 8.87945 14.926 8.30453 14.984C7.73234 15.0418 7.22027 14.6204 7.1643 14.0395C7.10742 13.4497 7.13492 12.8595 7.24601 12.2851C7.3632 11.6801 7.57402 11.096 7.87359 10.5422C7.31101 10.5598 6.76074 10.6055 6.22957 10.6783C5.74047 11.2981 5.43883 11.973 5.33355 12.6861C5.27801 13.0624 5.27754 13.4494 5.33226 13.8362C5.41332 14.4098 5.0157 14.9444 4.44562 15.0281C3.88 15.1111 3.34363 14.7144 3.26199 14.1368C3.1789 13.549 3.17996 12.9581 3.26519 12.3807C3.31648 12.0334 3.39898 11.6897 3.5114 11.3532C3.22 11.4651 2.94223 11.5876 2.68074 11.7206C2.53875 11.7929 2.36109 11.7384 2.28679 11.5924C2.2134 11.4482 2.27082 11.2718 2.41504 11.1984C4.02508 10.379 6.25082 9.9274 8.53851 9.94872C8.38086 9.74443 8.23402 9.54533 8.09789 9.35115C7.2398 8.12708 6.82265 7.12396 6.82265 6.2845C6.82265 5.70732 7.02344 5.21439 7.41937 4.81954C8.24781 3.99333 9.65035 3.86314 11.3685 4.45286C13.0165 5.01849 14.7822 6.18575 16.3403 7.73958C18.5977 9.99083 20 12.6342 20 14.6382C20 15.4693 19.747 16.1609 19.2683 16.6383C18.8712 17.0342 18.3829 17.2322 17.8072 17.2321C17.1978 17.2321 16.4904 17.0103 15.6895 16.5668C15.5254 16.4759 15.3568 16.3755 15.1839 16.2659C13.8479 16.9116 11.613 17.2281 8.36254 17.2325C6.50457 17.235 4.88574 17.1267 3.68406 16.9156C2.21168 16.6568 1.20742 16.2425 0.613865 15.6489C0.20574 15.2408 -0.000782013 14.7503 3.8147e-05 14.1911C0.00113106 13.4129 0.408318 12.6568 1.17758 12.0044ZM4.23242 11.1066C4.04398 11.5461 3.9132 12.0027 3.84476 12.4663C3.76773 12.9881 3.76683 13.5226 3.84211 14.0548C3.87812 14.3096 4.10976 14.4851 4.36078 14.4483C4.61262 14.4113 4.78812 14.1735 4.75207 13.9183C4.68949 13.4758 4.69012 13.0324 4.75391 12.6005C4.84644 11.9736 5.06992 11.375 5.41922 10.8132C5.00777 10.8942 4.61094 10.9922 4.23242 11.1066ZM11.7612 13.9781C11.784 14.2172 11.9795 14.3973 12.2163 14.3973C12.3613 14.3973 12.4928 14.3308 12.5796 14.2183C12.307 13.9707 12.0257 13.707 11.7357 13.427C11.7353 13.6106 11.7436 13.7947 11.7612 13.9781ZM7.82125 12.3963C7.72086 12.9155 7.69601 13.4494 7.7475 13.9835C7.77211 14.239 7.9957 14.4263 8.24789 14.4008C8.5009 14.3753 8.68676 14.1456 8.66226 13.889C8.61973 13.444 8.64027 13.0011 8.72328 12.5726C8.83226 12.0092 9.05062 11.4686 9.37281 10.9624C9.25004 10.8213 9.13172 10.6826 9.01816 10.5462C8.86469 10.5404 8.7098 10.5361 8.5541 10.5346C8.19379 11.1197 7.94734 11.7453 7.82125 12.3963ZM12.5919 5.63173C12.1482 5.80923 11.7332 6.0395 11.3574 6.31861C10.934 6.63314 10.5555 7.0104 10.2323 7.44001C10.0878 7.63204 10.1107 7.89685 10.2856 8.05599C10.4864 8.23876 10.8076 8.20579 10.9723 7.98685C11.2409 7.62974 11.5548 7.31669 11.9054 7.05638C12.4138 6.67872 12.9948 6.41353 13.6386 6.26326C13.2904 6.02978 12.9405 5.81861 12.5919 5.63173ZM18.3402 11.2789C17.8829 11.4369 17.4533 11.6503 17.0607 11.9154C16.6236 12.2107 16.2284 12.5706 15.8862 12.9854C15.7332 13.1709 15.744 13.4368 15.9115 13.6038C16.1036 13.7953 16.4257 13.7767 16.5999 13.5656C16.8844 13.2208 17.2121 12.9221 17.5739 12.6777C17.936 12.4331 18.336 12.2429 18.7656 12.1081C18.6402 11.8347 18.4982 11.5576 18.3402 11.2789ZM15.9734 16.0543C17.2932 16.7852 18.2357 16.8406 18.8545 16.2234C19.2258 15.8531 19.4141 15.3198 19.4141 14.6382C19.4141 14.0396 19.2661 13.3635 18.9936 12.6509C18.598 12.7695 18.2314 12.9408 17.9019 13.1633C17.5866 13.3762 17.3006 13.637 17.0519 13.9385C16.6591 14.4146 15.9326 14.4522 15.4978 14.0186C15.115 13.637 15.0877 13.0325 15.4343 12.6125C15.8123 12.1544 16.2491 11.7566 16.7327 11.4299C17.1344 11.1587 17.5707 10.9371 18.0331 10.767C17.793 10.3868 17.5255 10.0061 17.2328 9.63017C16.6343 9.66392 15.8152 9.81884 15.0598 10.3291C14.7445 10.542 14.4585 10.8028 14.2098 11.1042C13.8405 11.5518 13.1775 11.6176 12.7323 11.2536C12.2839 10.8871 12.2239 10.2244 12.5922 9.77822C12.8249 9.49615 13.0826 9.23435 13.3581 9.00009C13.4813 8.89533 13.6662 8.91021 13.7711 9.03349C13.8759 9.15673 13.8609 9.34165 13.7377 9.44646C13.4884 9.65845 13.255 9.89552 13.0442 10.1511C12.8805 10.3495 12.9069 10.6394 13.1033 10.8C13.3002 10.961 13.5939 10.9301 13.7579 10.7312C14.0424 10.3865 14.37 10.0878 14.7319 9.84345C15.3253 9.44263 16.0273 9.1847 16.787 9.08415C16.5546 8.81232 16.3096 8.54462 16.0531 8.28298C15.6187 8.38634 15.2037 8.53626 14.8177 8.73025C14.6755 8.80173 14.498 8.74638 14.4244 8.60005C14.3518 8.45548 14.41 8.27939 14.5546 8.20673C14.8759 8.04529 15.215 7.91208 15.5671 7.80712C15.1571 7.42208 14.7352 7.06517 14.3073 6.74068C13.5235 6.83318 12.8333 7.09708 12.2548 7.52673C11.9493 7.75361 11.6754 8.02693 11.4405 8.33911C11.0694 8.83243 10.3443 8.90161 9.89129 8.48939C9.49141 8.12548 9.43672 7.52294 9.76406 7.08779C10.121 6.61329 10.5396 6.19626 11.0081 5.84825C11.2899 5.63896 11.5912 5.45431 11.9086 5.29587C11.663 5.18638 11.4192 5.08982 11.1782 5.00708C10.5285 4.78408 9.93703 4.67322 9.42133 4.67322C8.75 4.67322 8.20726 4.86118 7.83301 5.23443C7.54734 5.51931 7.40848 5.86279 7.40848 6.2845C7.40848 6.98958 7.8018 7.90818 8.57758 9.01482C8.96531 9.5679 9.4523 10.2139 9.95328 10.7353C11.6989 12.5519 13.8133 14.858 15.9734 16.0543Z" />
</g>
</symbol>
 <symbol id="boiled-egg" viewBox="0 0 20 20">
 <title>boiled-egg</title>
<g clip-path="url(#clip0_102_83)">
<path d="M0.00408745 11.2702C0.0296364 10.2109 0.136238 9.22089 0.320875 8.32774C0.423986 7.82889 1.20118 7.98877 1.09791 8.48837C0.922832 9.33507 0.821747 10.2774 0.797308 11.2893C0.758627 12.8931 1.00809 14.2854 1.53872 15.4275C2.38684 17.2529 4.04541 18.4556 6.00581 18.8143C6.01596 18.8161 6.94836 18.9797 8.24562 18.7134C7.71163 18.3678 7.05175 17.8433 6.45419 17.0904C4.59488 14.7478 4.57592 11.6405 5.36081 8.87776C5.85553 7.13632 6.55889 5.41269 7.64648 3.95261C5.95852 3.09571 4.75984 3.42261 4.70874 3.43725C4.69728 3.44086 4.69287 3.44194 4.68113 3.44447C4.62499 3.45741 3.29389 3.78154 2.19606 5.56848C1.92723 6.00596 1.25386 5.5863 1.51999 5.15311C2.75564 3.14189 4.31427 2.71652 4.49538 2.67303C4.6707 2.62447 6.17216 2.25869 8.15668 3.32403C9.13581 2.21687 10.4826 1.20192 11.9955 1.04537C13.1219 0.928854 14.2482 1.35752 15.1759 1.97023C16.031 2.53501 16.8072 3.32403 17.4827 4.31529C18.3147 5.53607 18.9967 7.0711 19.51 8.87768C20.2949 11.6405 20.2759 14.7477 18.4166 17.0903C17.2161 18.6028 15.7638 19.1944 15.5869 19.2624C13.6511 20.135 11.2259 20.015 9.28021 19.261C8.1998 19.6074 7.00477 19.7907 5.87727 19.5972C3.68915 19.3441 1.74847 17.742 0.831308 15.7878C0.240458 14.529 -0.0378475 13.009 0.00408745 11.2702ZM15.2658 18.5369C15.2755 18.5324 15.2861 18.5279 15.2962 18.5242C15.3101 18.519 16.7055 17.9867 17.8182 16.5678C19.4948 14.43 19.4571 11.5953 18.7467 9.09465C17.6555 5.25372 15.9931 3.47935 14.7907 2.6672C13.791 1.99201 12.8616 1.8178 12.4818 1.8178C12.4711 1.8178 12.4608 1.81792 12.4509 1.8182C12.4406 1.81864 12.4302 1.81864 12.4199 1.8182C12.3782 1.81681 8.21353 1.73981 6.12411 9.09461C5.41365 11.5953 5.376 14.4299 7.05254 16.5678C8.16525 17.9866 9.56062 18.519 9.5738 18.5238C11.328 19.1695 13.5218 19.3445 15.2658 18.5369Z" />
<path d="M8.09812 12.9985C8.09812 10.6067 10.044 8.66077 12.4358 8.66077C13.106 8.66077 13.7487 8.80959 14.3461 9.10305C14.8033 9.32764 14.4542 10.04 13.9963 9.81522C13.5086 9.57567 12.9836 9.45419 12.4358 9.45419C10.4815 9.45419 8.89158 11.0441 8.89158 12.9984C8.89158 14.9527 10.4815 16.5426 12.4358 16.5426C14.3901 16.5426 15.98 14.9527 15.98 12.9984C15.98 12.6416 15.9273 12.2897 15.8232 11.9524C15.6731 11.4656 16.4311 11.2311 16.5815 11.7186C16.7088 12.1317 16.7734 12.5623 16.7734 12.9984C16.7734 15.3902 14.8276 17.3361 12.4358 17.3361C10.044 17.3361 8.09812 15.3903 8.09812 12.9985Z" />
<path d="M15.7948 10.6286C15.7306 10.7852 15.5678 10.8847 15.3995 10.8726C15.2272 10.8603 15.0797 10.732 15.0419 10.5639C14.9641 10.218 15.3661 9.94877 15.6568 10.1529C15.8067 10.2582 15.8653 10.4594 15.7948 10.6286Z" />
<path d="M1.52041 6.63466C1.71457 6.92562 1.4461 7.31969 1.10361 7.24149C0.938924 7.20388 0.812168 7.06225 0.795823 6.89352C0.779875 6.72868 0.871281 6.56705 1.02109 6.49616C1.19565 6.41356 1.4142 6.47228 1.52041 6.63466Z" />
</g>
</symbol>
 <symbol id="milk" viewBox="0 0 20 20">
 <title>milk</title>
<g clip-path="url(#clip0_102_116)">
<path d="M2.95957 6.04801L5.51511 2.83607V1.41006C5.51511 0.763891 6.04081 0.23819 6.68698 0.23819H13.3121C13.9583 0.23819 14.484 0.763891 14.484 1.41006V2.83611L17.0396 6.04809C17.7206 6.90402 18.2026 7.62484 18.2026 9.1121V18.7027C18.2026 19.5494 17.5438 20.2382 16.7339 20.2382H3.26527C2.45543 20.2382 1.79653 19.5494 1.79653 18.7027V9.1121C1.79653 7.62484 2.2786 6.90402 2.95957 6.04801ZM2.57778 9.50272V17.1131H9.98415V9.50272H2.57778ZM2.59188 8.72148H9.99622C10.0744 7.49148 10.5287 6.82543 11.1472 6.04805L13.2834 3.36318H6.09413L3.57094 6.53445C3.02195 7.22445 2.6648 7.74468 2.59188 8.72148ZM13.7028 1.41006C13.7028 1.19467 13.5275 1.01944 13.3121 1.01944H6.68702C6.47163 1.01944 6.29639 1.19467 6.29639 1.41006V2.58193H13.7028V1.41006ZM16.4282 6.53449L14.0934 3.59997L11.7586 6.53449C11.2096 7.22445 10.8525 7.74468 10.7795 8.72148H12.2506C12.4663 8.72148 12.6413 8.8964 12.6413 9.1121C12.6413 9.3278 12.4663 9.50272 12.2506 9.50272H10.7654V17.1131H17.4214V9.50272H15.7662C15.5505 9.50272 15.3756 9.3278 15.3756 9.1121C15.3756 8.8964 15.5505 8.72148 15.7662 8.72148H17.4073C17.3344 7.74468 16.9772 7.22445 16.4282 6.53449ZM17.4214 18.7026V17.8944H10.7654V19.4569H16.7339C17.113 19.4569 17.4214 19.1186 17.4214 18.7026ZM3.26527 19.4569H9.98415V17.8944H2.57778V18.7026C2.57778 19.1186 2.88621 19.4569 3.26527 19.4569Z" />
<path d="M6.2815 15.2923C5.18732 15.2923 4.29712 14.4021 4.29712 13.3079C4.29712 12.2137 5.18732 11.3235 6.2815 11.3235C7.37567 11.3235 8.26587 12.2137 8.26587 13.3079C8.26587 14.4021 7.37564 15.2923 6.2815 15.2923ZM6.2815 12.1048C5.6181 12.1048 5.07837 12.6445 5.07837 13.3079C5.07837 13.9713 5.61806 14.5111 6.2815 14.5111C6.94493 14.5111 7.48462 13.9713 7.48462 13.3079C7.48462 12.6445 6.94489 12.1048 6.2815 12.1048Z" />
<path d="M14.0081 9.5028C13.7924 9.5028 13.6175 9.32787 13.6175 9.11217C13.6175 8.89647 13.7924 8.72155 14.0081 8.72155H14.0085C14.2242 8.72155 14.3989 8.89647 14.3989 9.11217C14.3989 9.32787 14.2239 9.5028 14.0081 9.5028Z" />
</g>
</symbol>
 <symbol id="meat" viewBox="0 0 20 20">
 <title>meat</title>
<path d="M1.70051 4.93669C2.6125 4.20986 3.89973 3.61478 5.52645 3.16806C8.655 2.30892 12.183 2.21619 13.5546 2.21619C17.1086 2.21619 20 5.10759 20 8.66158V11.3924C20 14.9465 17.1086 17.8378 13.5546 17.8378C11.9159 17.8378 10.6851 17.3245 9.38211 16.781C8.03461 16.2189 6.64129 15.6377 4.68168 15.6377C2.1002 15.6377 0 13.5375 0 10.956V8.22517C0 6.9424 0.572147 5.83599 1.70051 4.93669ZM2.02945 11.6146C1.88156 11.7717 1.63434 11.7791 1.47726 11.6313C1.21234 11.3818 0.979298 11.1039 0.78125 10.8046V10.956C0.78125 13.1068 2.53098 14.8565 4.68168 14.8565C6.7977 14.8565 8.26441 15.4683 9.68285 16.0599C10.9116 16.5724 12.0723 17.0566 13.5546 17.0566C16.5554 17.0566 19.0183 14.7108 19.2067 11.7567C18.1098 13.7517 15.9876 15.1069 13.5546 15.1069C11.9159 15.1069 10.6851 14.5935 9.38211 14.05C8.03461 13.4879 6.64129 12.9068 4.68168 12.9068C4.53609 12.9068 4.38902 12.8999 4.24449 12.8864C4.02969 12.8663 3.87188 12.6758 3.89199 12.461C3.91211 12.2463 4.10277 12.0885 4.31734 12.1086C4.43777 12.1198 4.56031 12.1256 4.68168 12.1256C6.7977 12.1256 8.26441 12.7374 9.68285 13.329C10.9116 13.8415 12.0723 14.3257 13.5546 14.3257C16.6779 14.3257 19.2188 11.7848 19.2188 8.66162C19.2188 5.53841 16.6779 2.99748 13.5546 2.99748C12.2147 2.99748 8.77024 3.08751 5.73332 3.92146C2.44738 4.82384 0.78125 6.27181 0.78125 8.22517C0.78125 9.29138 1.23016 10.3255 2.01281 11.0624C2.16988 11.2103 2.17734 11.4575 2.02945 11.6146Z" />
<path d="M2.35089 11.8639C2.44277 11.6687 2.67554 11.5849 2.87066 11.6768C2.87347 11.6781 2.87718 11.6799 2.87996 11.6813C3.07288 11.7777 3.15109 12.0124 3.05464 12.2053C2.9862 12.3422 2.84824 12.4213 2.70492 12.4213C2.64703 12.4213 2.58828 12.4084 2.53288 12.3812C2.34136 12.2877 2.25984 12.0574 2.35089 11.8639Z" />
<path d="M10.7349 3.88875L10.755 3.8871C10.9704 3.87031 11.1584 4.03039 11.1755 4.24546C11.1927 4.4605 11.0322 4.64875 10.8172 4.66593L10.7972 4.6675C10.7866 4.66835 10.7761 4.66878 10.7657 4.66878C10.5641 4.66878 10.3931 4.51371 10.3767 4.30929C10.3595 4.09421 10.5199 3.90597 10.7349 3.88875Z" />
<path d="M1.80681 7.17278C2.19428 6.407 3.05639 5.7452 4.36928 5.20583C5.43158 4.76938 6.59334 4.49368 7.38088 4.33919C7.85287 4.24665 8.34748 4.16399 8.851 4.0936C9.06455 4.06345 9.26205 4.21267 9.29197 4.42638C9.32186 4.64005 9.17287 4.83743 8.9592 4.86731C8.46975 4.93575 7.98932 5.01602 7.53123 5.10587C4.84803 5.63208 3.01564 6.51399 2.50392 7.5254C2.39643 7.73794 2.34416 7.96681 2.34416 8.22509C2.34416 9.51419 3.39295 10.563 4.68209 10.563C5.98553 10.563 7.25127 10.776 8.55166 11.2142C9.11174 11.403 9.65557 11.6287 10.1815 11.847C10.5293 11.9913 10.889 12.1406 11.246 12.2759C12.147 12.6174 12.8376 12.7631 13.5551 12.7631C15.8167 12.7631 17.6567 10.9231 17.6567 8.66149C17.6567 6.39985 15.8167 4.55985 13.5551 4.55985C13.1138 4.55985 12.6659 4.56821 12.2238 4.5847C12.1488 4.58747 12.0737 4.59048 11.9985 4.5938C11.7831 4.60356 11.6005 4.4363 11.591 4.22075C11.5815 4.00524 11.7485 3.82278 11.964 3.81329C12.041 3.80989 12.1179 3.80681 12.1947 3.80395C12.6465 3.78712 13.1042 3.7786 13.5551 3.7786C16.2475 3.7786 18.438 5.96903 18.438 8.66149C18.438 11.3539 16.2476 13.5443 13.5551 13.5443C12.7373 13.5443 11.964 13.3834 10.9692 13.0064C10.6008 12.8668 10.2354 12.7152 9.88201 12.5685C9.36822 12.3553 8.83693 12.1348 8.30217 11.9545C7.0835 11.5438 5.89935 11.3442 4.68209 11.3442C2.96217 11.3443 1.56291 9.94501 1.56291 8.22513C1.56291 7.84146 1.64271 7.49724 1.80681 7.17278Z" />
<path d="M13.1804 5.33244C14.2724 5.33244 15.1609 6.13811 15.1609 7.12842C15.1609 8.11873 14.2724 8.92439 13.1804 8.92439C12.0883 8.92439 11.1999 8.11873 11.1999 7.12842C11.1999 6.13811 12.0883 5.33244 13.1804 5.33244ZM13.1804 8.14311C13.8417 8.14311 14.3796 7.68791 14.3796 7.12838C14.3796 6.56889 13.8417 6.11365 13.1804 6.11365C12.5191 6.11365 11.9811 6.56885 11.9811 7.12838C11.9811 7.68791 12.5191 8.14311 13.1804 8.14311Z" />
</symbol>
 <symbol id="fish" viewBox="0 0 20 20">
 <title>fish</title>
<g clip-path="url(#clip0_102_92)">
<path d="M0.0527744 11.0294C1.71853 8.0475 4.45694 6.22413 7.66661 5.88624C9.2758 3.8538 14.3251 3.33892 14.543 3.31771C14.685 3.30306 14.8279 3.36489 14.9149 3.48048C15.0024 3.59525 15.024 3.7474 14.9719 3.88209C14.4768 5.16709 13.9697 6.6287 13.8355 7.22668C14.7524 7.64625 15.5538 8.09242 16.0705 8.46422C17.1912 6.6714 19.4787 6.64902 19.5833 6.64902C19.8136 6.64902 20 6.83538 20 7.0657C20 9.47985 19.1585 10.6916 18.5958 11.2324C19.1585 11.7731 20 12.9849 20 15.3991C20 15.6294 19.8136 15.8157 19.5833 15.8157C19.4787 15.8157 17.1911 15.7934 16.0705 14.0005C15.3841 14.4945 14.1972 15.1192 12.9002 15.6385C13.1868 16.102 13.3333 16.8393 13.3333 17.8991C13.3333 18.1294 13.1469 18.3158 12.9166 18.3158C12.7927 18.3158 9.95924 18.2912 8.54814 16.636C4.95944 16.5666 1.86927 14.6871 0.0527744 11.4354C-0.0176163 11.3093 -0.0176163 11.1555 0.0527744 11.0294ZM13.9489 4.23041C12.5489 4.43306 10.2504 4.93166 8.9515 5.82413C10.1492 5.87093 11.6773 6.32374 13.0626 6.89195C13.247 6.15952 13.6563 5.01526 13.9489 4.23041ZM12.4902 17.4584C12.4347 16.2994 12.1673 16.0032 12.0923 15.9425C11.2803 16.2275 10.4577 16.454 9.71068 16.5677C10.6146 17.2037 11.8467 17.4016 12.4902 17.4584ZM12.1407 15.9272L12.1405 15.9261C12.1394 15.9265 12.1382 15.9268 12.1371 15.9272C12.1394 15.9269 12.1382 15.9276 12.1407 15.9272ZM8.74993 15.8157C11.1848 15.8157 15.166 13.8166 15.9033 13.0622C15.9822 12.9812 16.0901 12.9369 16.2011 12.9369C16.2264 12.9369 16.252 12.9394 16.2772 12.9438C16.4136 12.9691 16.5287 13.061 16.5837 13.1884C17.146 14.4925 18.4684 14.8485 19.1557 14.9458C19.0255 12.3347 17.7897 11.6369 17.7262 11.6031C17.5891 11.5327 17.5045 11.3906 17.5024 11.2365C17.5004 11.0806 17.5879 10.9354 17.7258 10.8621C17.7816 10.8324 19.0247 10.1395 19.1557 7.52144C18.4689 7.62195 17.1415 7.98328 16.5837 9.27641C16.5287 9.40376 16.4136 9.49575 16.2772 9.52095C16.1397 9.54657 16.0001 9.50181 15.9033 9.40255C15.166 8.64813 11.1848 6.64902 8.74993 6.64902C5.46011 6.64902 2.61056 8.31609 0.896687 11.2324C2.61056 14.1487 5.46011 15.8157 8.74993 15.8157Z" />
<path d="M7.50041 11.2323C7.50041 9.31502 6.74397 8.14068 6.73623 8.12888C6.6101 7.93681 6.66299 7.67884 6.85424 7.55188C7.04549 7.42575 7.30346 7.47743 7.43041 7.66786C7.46745 7.72321 8.33374 9.04806 8.33374 11.2323C8.33374 13.4166 7.46745 14.7415 7.43041 14.7968C7.35026 14.9172 7.21799 14.9824 7.08334 14.9824C7.00401 14.9824 6.92385 14.9596 6.85264 14.9124C6.661 14.7846 6.60932 14.5262 6.73709 14.3345C6.74479 14.3232 7.50041 13.1672 7.50041 11.2323Z" />
<path d="M8.52025 7.55191C8.7119 7.42578 8.96909 7.47746 9.09643 7.66789C9.13346 7.72321 9.99976 9.04809 9.99976 11.2323C9.99976 12.3989 9.74831 13.3157 9.5371 13.8792C9.47444 14.0464 9.31573 14.1498 9.14686 14.1498C9.09842 14.1498 9.04881 14.1412 9.00077 14.1234C8.7851 14.0428 8.67604 13.8027 8.75662 13.5871C8.94338 13.0878 9.16639 12.274 9.16639 11.2323C9.16639 9.31501 8.40994 8.14067 8.40221 8.12887C8.27611 7.93684 8.329 7.67887 8.52025 7.55191Z" />
<path d="M4.99993 10.8156C4.53969 10.8156 4.1666 10.4425 4.1666 9.98228C4.1666 9.52205 4.53969 9.14896 4.99993 9.14896C5.46016 9.14896 5.83325 9.52205 5.83325 9.98228C5.83325 10.4425 5.46016 10.8156 4.99993 10.8156Z" />
</g>
</symbol>
 <symbol id="map" viewBox="0 0 20 20">
 <title>map</title>
<path d="M4.375 8.125C4.375 6.63316 4.96763 5.20242 6.02252 4.14752C7.07742 3.09263 8.50816 2.5 10 2.5C11.4918 2.5 12.9226 3.09263 13.9775 4.14752C15.0324 5.20242 15.625 6.63316 15.625 8.125C15.625 10.4325 13.7787 13.44 10 17.0425C6.22125 13.44 4.375 10.4325 4.375 8.125ZM10 18.75C14.5838 14.5837 16.875 11.0413 16.875 8.125C16.875 6.30164 16.1507 4.55295 14.8614 3.26364C13.572 1.97433 11.8234 1.25 10 1.25C8.17664 1.25 6.42795 1.97433 5.13864 3.26364C3.84933 4.55295 3.125 6.30164 3.125 8.125C3.125 11.0413 5.41625 14.5837 10 18.75Z" />
<path d="M10 8.75C9.66848 8.75 9.35054 8.6183 9.11612 8.38388C8.8817 8.14946 8.75 7.83152 8.75 7.5C8.75 7.16848 8.8817 6.85054 9.11612 6.61612C9.35054 6.3817 9.66848 6.25 10 6.25C10.3315 6.25 10.6495 6.3817 10.8839 6.61612C11.1183 6.85054 11.25 7.16848 11.25 7.5C11.25 7.83152 11.1183 8.14946 10.8839 8.38388C10.6495 8.6183 10.3315 8.75 10 8.75ZM10 10C10.663 10 11.2989 9.73661 11.7678 9.26777C12.2366 8.79893 12.5 8.16304 12.5 7.5C12.5 6.83696 12.2366 6.20107 11.7678 5.73223C11.2989 5.26339 10.663 5 10 5C9.33696 5 8.70107 5.26339 8.23223 5.73223C7.76339 6.20107 7.5 6.83696 7.5 7.5C7.5 8.16304 7.76339 8.79893 8.23223 9.26777C8.70107 9.73661 9.33696 10 10 10ZM3.25 13.75L1.25 18.75H6.875V17.5H13.125V18.75H18.75L16.75 13.75H3.25ZM4.59625 13.75H15.4037L16.9037 17.5H3.09625L4.59625 13.75Z" />
</symbol>
 <symbol id="harvest" viewBox="0 0 20 20">
 <title>harvest</title>
<path d="M0.121877 8.87179C0.138127 8.7828 0.184728 8.70218 0.253829 8.64374C0.900704 8.09651 1.00992 7.49312 1.0977 7.00831L1.10918 6.94515C1.13949 6.77968 1.27238 6.65218 1.43895 6.62874C1.49645 6.62065 1.55731 6.61651 1.61984 6.61651C1.9916 6.61651 2.51535 6.77315 2.84742 7.12304C2.90406 7.18276 2.94043 7.25886 2.95129 7.34046C2.97922 7.55038 2.9936 7.74249 3.00625 7.91198C3.0541 8.55069 3.09641 8.61843 3.29098 8.67999C3.41293 8.71858 3.50824 8.8144 3.54617 8.93651C3.72942 9.52644 3.97258 10.091 4.26688 10.6236C4.41223 10.3461 4.57285 10.0965 4.72235 9.86421C5.08797 9.29616 5.3768 8.84741 5.27813 8.29128C4.95836 6.48878 5.12067 5.13097 5.76067 4.2555C6.11707 3.76796 6.62481 3.43558 7.24184 3.2803C7.11902 2.32202 6.45309 1.88757 6.08445 1.78878C5.87606 1.73296 5.75238 1.51874 5.80824 1.31034C5.8641 1.10198 6.07832 0.978194 6.28664 1.03413C7.04777 1.23808 7.86078 1.98679 8.01606 3.18265C8.63949 3.18089 9.2057 3.37128 9.67164 3.74354C10.523 4.42382 11.0375 5.68796 11.2006 7.50077C11.2497 8.04628 11.6026 8.36456 12.0911 8.80499C12.4898 9.16452 12.9339 9.56593 13.2897 10.1728C13.7329 9.99229 14.2083 9.87522 14.7047 9.83284C14.564 8.91284 13.9169 8.49276 13.5554 8.39593C13.347 8.34011 13.2234 8.12589 13.2792 7.91753C13.3351 7.70913 13.5493 7.58538 13.7576 7.64132C13.9539 7.6939 14.1536 7.78315 14.3446 7.90651C14.4335 7.46788 14.6485 7.05647 14.974 6.73097C15.4102 6.29479 15.9902 6.0546 16.607 6.0546C16.8089 6.0546 17.01 6.08097 17.2048 6.13292C17.3398 6.16897 17.4453 6.27448 17.4814 6.40952C17.6936 7.20429 17.4645 8.05905 16.8834 8.64026C16.479 9.0446 15.9509 9.28015 15.3845 9.31245C15.4339 9.47409 15.4706 9.64612 15.492 9.82854C18.0095 10.0177 20 12.1264 20 14.6914C20 17.3805 17.8123 19.5682 15.1233 19.5682C14.1239 19.5682 13.172 19.2711 12.357 18.7077C12.2287 18.764 12.0999 18.8182 11.9705 18.8692C10.7949 19.333 9.60676 19.5681 8.43922 19.5681C6.56125 19.5681 4.81828 18.9545 3.39875 17.7936C1.91504 16.5802 0.821525 14.7848 0.236525 12.6014C0.0456266 11.8893 -0.122772 10.2114 0.121877 8.87179ZM11.5679 9.38522C11.0424 8.9114 10.4991 8.42144 10.4225 7.57085C10.2792 5.97847 9.8625 4.89612 9.18395 4.35397C8.78113 4.03214 8.28324 3.90804 7.70395 3.98546C7.13184 4.06183 6.6902 4.3078 6.39133 4.71663C5.88195 5.41343 5.76621 6.57022 6.04738 8.15483C6.19961 9.01269 5.78258 9.66054 5.3793 10.2871C5.15328 10.6382 4.92063 11.0003 4.76242 11.4217C6.07895 13.3229 8.07664 14.7093 10.2748 15.217C10.2561 15.0427 10.2465 14.8671 10.2465 14.6914C10.2465 12.9294 11.186 11.3826 12.5903 10.5255C12.298 10.0445 11.928 9.70999 11.5679 9.38522ZM16.331 8.0878C16.6592 7.7596 16.8177 7.2994 16.7698 6.8444C16.7158 6.8387 16.6616 6.83577 16.6071 6.83577C16.1989 6.83577 15.8152 6.99472 15.5266 7.28331C15.1984 7.61151 15.0398 8.07175 15.0877 8.52671C15.1417 8.53241 15.196 8.5353 15.2503 8.5353H15.2504C15.6587 8.53534 16.0424 8.3764 16.331 8.0878ZM15.1233 18.7869C17.3816 18.7869 19.2188 16.9497 19.2188 14.6914C19.2188 12.4332 17.3816 10.596 15.1233 10.596C12.865 10.596 11.0278 12.4332 11.0278 14.6914C11.0278 14.9166 11.0462 15.1414 11.0826 15.3625C11.3339 15.3949 11.5869 15.4155 11.8411 15.4242C11.7875 15.1846 11.7596 14.9398 11.7596 14.6914C11.7596 14.2515 11.8442 13.8221 12.0111 13.4151C12.093 13.2155 12.3211 13.12 12.5208 13.2019C12.7204 13.2838 12.8158 13.5119 12.7339 13.7116C12.6058 14.024 12.5408 14.3537 12.5408 14.6914C12.5408 14.9371 12.5756 15.1784 12.6437 15.412C13.2027 15.376 13.7626 15.2836 14.3143 15.1358C14.4266 15.1057 14.5466 15.1273 14.6415 15.1946C14.9887 15.4411 15.3386 15.7511 15.5461 16.3456C15.5996 16.4988 15.5528 16.6691 15.4285 16.7735C14.7109 17.3762 13.9612 17.8872 13.1889 18.302C13.7801 18.6204 14.4383 18.7869 15.1233 18.7869ZM0.991134 12.3993C2.06289 16.399 4.84719 18.7869 8.43918 18.7869C10.5361 18.7869 12.7496 17.9272 14.7006 16.3604C14.5972 16.1748 14.4693 16.047 14.332 15.9379C13.5984 16.1189 12.8525 16.2105 12.1118 16.2105C10.0153 16.2105 7.99387 15.4961 6.26598 14.1445C5.3875 13.4574 4.62613 12.6294 4.01625 11.7112C4.00899 11.7014 4.00215 11.6912 3.99586 11.6808C3.51442 10.9503 3.12879 10.1633 2.85684 9.34499C2.30938 9.06952 2.26762 8.51155 2.22711 7.9703C2.21785 7.84659 2.20836 7.71972 2.19387 7.58585C2.08996 7.51062 1.95227 7.45105 1.81422 7.42042C1.71012 7.9171 1.5077 8.55464 0.868048 9.14335C0.687072 10.2942 0.818478 11.7549 0.991134 12.3993Z" />
<path d="M7.40206 4.78933C7.60088 4.70605 7.82991 4.79961 7.91335 4.99855C7.99679 5.1975 7.90315 5.42641 7.70417 5.50984C7.41999 5.62898 7.26307 6.48645 7.51299 7.89477C7.55069 8.10719 7.40905 8.30996 7.19659 8.34766C7.1735 8.35176 7.15053 8.35375 7.12787 8.35375C6.94205 8.35375 6.77729 8.22063 6.74369 8.03133C6.52018 6.77195 6.45299 5.18723 7.40206 4.78933Z" />
<path d="M4.82045 15.9698C4.94986 15.7972 5.19513 15.7626 5.36771 15.8921C5.36787 15.8922 5.36955 15.8934 5.36966 15.8935C5.54365 16.0209 5.58072 16.2646 5.45349 16.4387C5.37712 16.5431 5.2583 16.5984 5.13787 16.5984C5.05763 16.5984 4.97666 16.5739 4.90705 16.523L4.8981 16.5164C4.72553 16.387 4.691 16.1425 4.82045 15.9698Z" />
<path d="M5.71619 16.6016C5.81451 16.4095 6.04983 16.3335 6.2419 16.4317C7.57889 17.1156 8.7069 17.0886 8.72354 17.0878C8.93827 17.0804 9.11968 17.2477 9.12811 17.4629C9.13655 17.6785 8.96866 17.8601 8.75307 17.8685C8.7471 17.8687 8.72608 17.8695 8.6912 17.8695C8.41202 17.8695 7.24846 17.8241 5.88612 17.1272C5.69404 17.029 5.61799 16.7936 5.71619 16.6016Z" />
<path d="M12.7329 12.325L12.7458 12.3121C12.8987 12.16 13.146 12.1606 13.2982 12.3136C13.4503 12.4665 13.4497 12.7139 13.2967 12.866L13.2883 12.8744C13.2119 12.9517 13.1113 12.9903 13.0106 12.9903C12.9114 12.9903 12.812 12.9527 12.7359 12.8774C12.5825 12.7257 12.5812 12.4783 12.7329 12.325Z" />
</symbol>
 </defs>
</svg>